<svg height="64" viewBox="0 0 512 512" width="64" xmlns="http://www.w3.org/2000/svg" xmlns:xlink="http://www.w3.org/1999/xlink"><linearGradient id="a"><stop offset="0" stop-color="#662d91"/><stop offset=".437" stop-color="#3873b3"/><stop offset="1" stop-color="#00c9dd"/></linearGradient><linearGradient id="b" gradientTransform="matrix(1.07782 0 0 -1.07782 0 502.44351)" gradientUnits="userSpaceOnUse" x1="60.3688" x2="487.9696" xlink:href="#a" y1="469.1382" y2="41.5373"/><linearGradient id="c" gradientTransform="matrix(1.07782 0 0 -1.07782 0 502.44351)" gradientUnits="userSpaceOnUse" x1="-70.2653" x2="357.3356" xlink:href="#a" y1="338.5042" y2="-89.0968"/><linearGradient id="d" gradientTransform="matrix(1.07782 0 0 -1.07782 0 502.44351)" gradientUnits="userSpaceOnUse" x1="-86.0997" x2="341.5012" xlink:href="#a" y1="322.6697" y2="-104.9312"/><linearGradient id="e" gradientTransform="matrix(1.07782 0 0 -1.07782 0 502.44351)" gradientUnits="userSpaceOnUse" x1="-68.286" x2="359.3149" xlink:href="#a" y1="340.4835" y2="-87.1175"/><linearGradient id="f" gradientTransform="matrix(1.07782 0 0 -1.07782 0 502.44351)" gradientUnits="userSpaceOnUse" x1="-4.9483" x2="422.6526" xlink:href="#a" y1="403.8212" y2="-23.7797"/><linearGradient id="g" gradientTransform="matrix(1.07782 0 0 -1.07782 0 502.44351)" gradientUnits="userSpaceOnUse" x1="58.3895" x2="485.9903" xlink:href="#a" y1="467.1589" y2="39.558"/><linearGradient id="h" gradientTransform="matrix(1.07782 0 0 -1.07782 0 502.44351)" gradientUnits="userSpaceOnUse" x1="99.9548" x2="527.5558" xlink:href="#a" y1="508.7243" y2="81.1234"/><path d="m508.46875 180.820312-247.46875-179.203124c-2.984375-2.15625-7.015625-2.15625-10 0l-247.46875 179.203124c-3.816406 2.761719-4.667969 8.097657-1.90625 11.914063 1.605469 2.21875 4.171875 3.527344 6.910156 3.53125h494.933594c4.710938-.003906 8.53125-3.824219 8.527344-8.539063 0-2.734374-1.3125-5.304687-3.527344-6.90625zm-473.601562-1.625 221.132812-160.132812 221.132812 160.132812zm0 0" fill="url(#b)"/><path d="m25.601562 469.332031c0 4.710938 3.820313 8.53125 8.53125 8.53125h443.734376c4.710937 0 8.53125-3.820312 8.53125-8.53125 0-4.714843-3.820313-8.535156-8.53125-8.535156h-443.734376c-4.710937 0-8.53125 3.820313-8.53125 8.535156zm0 0" fill="url(#c)"/><path d="m503.46875 494.929688h-494.9375c-4.710938 0-8.53125 3.820312-8.53125 8.535156 0 4.710937 3.820312 8.53125 8.53125 8.53125h494.9375c4.710938 0 8.53125-3.820313 8.53125-8.53125 0-4.714844-3.820312-8.535156-8.53125-8.535156zm0 0" fill="url(#d)"/><path d="m68.265625 426.664062c-4.710937 0-8.53125 3.820313-8.53125 8.53125 0 4.714844 3.820313 8.535157 8.53125 8.535157h102.402344c4.710937 0 8.53125-3.820313 8.53125-8.535157 0-4.710937-3.820313-8.53125-8.53125-8.53125h-17.066407v-196.265624h17.066407c4.710937 0 8.53125-3.820313 8.53125-8.535157 0-4.710937-3.820313-8.53125-8.53125-8.53125h-102.402344c-4.710937 0-8.53125 3.820313-8.53125 8.53125 0 4.714844 3.820313 8.535157 8.53125 8.535157h17.066406v196.265624zm34.136719-196.265624h34.132812v196.265624h-34.132812zm0 0" fill="url(#e)"/><path d="m204.800781 426.664062c-4.714843 0-8.535156 3.820313-8.535156 8.53125 0 4.714844 3.820313 8.535157 8.535156 8.535157h102.398438c4.714843 0 8.535156-3.820313 8.535156-8.535157 0-4.710937-3.820313-8.53125-8.535156-8.53125h-17.066407v-196.265624h17.066407c4.714843 0 8.535156-3.820313 8.535156-8.535157 0-4.710937-3.820313-8.53125-8.535156-8.53125h-102.398438c-4.714843 0-8.535156 3.820313-8.535156 8.53125 0 4.714844 3.820313 8.535157 8.535156 8.535157h17.066407v196.265624zm34.132813-196.265624h34.132812v196.265624h-34.132812zm0 0" fill="url(#f)"/><path d="m341.332031 426.664062c-4.710937 0-8.53125 3.820313-8.53125 8.53125 0 4.714844 3.820313 8.535157 8.53125 8.535157h102.402344c4.714844 0 8.53125-3.820313 8.53125-8.535157 0-4.710937-3.820313-8.53125-8.53125-8.53125h-17.066406v-196.265624h17.066406c4.714844 0 8.53125-3.820313 8.53125-8.535157 0-4.710937-3.820313-8.53125-8.53125-8.53125h-102.402344c-4.710937 0-8.53125 3.820313-8.53125 8.53125 0 4.714844 3.820313 8.535157 8.53125 8.535157h17.066407v196.265624zm34.132813-196.265624h34.132812v196.265624h-34.132812zm0 0" fill="url(#g)"/><path d="m247.464844 51.195312v8.730469c-13.875.4375-25.054688 11.53125-25.597656 25.40625.628906 14.707031 13.019531 26.148438 27.730468 25.597657h12.800782c5.28125-.515626 10.011718 3.269531 10.667968 8.535156-.652344 5.265625-5.386718 9.050781-10.667968 8.53125h-32c-4.710938 0-8.53125 3.820312-8.53125 8.535156 0 4.710938 3.820312 8.53125 8.53125 8.53125h17.066406v8.535156c0 4.710938 3.820312 8.53125 8.535156 8.53125 4.710938 0 8.53125-3.820312 8.53125-8.53125v-8.730468c13.878906-.4375 25.054688-11.53125 25.601562-25.40625-.628906-14.707032-13.023437-26.148438-27.734374-25.597657h-12.800782c-5.28125.515625-10.011718-3.269531-10.667968-8.535156.65625-5.265625 5.386718-9.050781 10.667968-8.53125h32c4.714844 0 8.535156-3.820313 8.535156-8.535156 0-4.710938-3.820312-8.53125-8.535156-8.53125h-17.066406v-8.535157c0-4.710937-3.820312-8.53125-8.53125-8.53125s-8.535156 3.820313-8.535156 8.53125zm0 0" fill="url(#h)"/></svg>